<?xml version="1.0" encoding="utf-8"?>
<svg viewBox="7 324 200 100" width="200px" height="100px" xmlns="http://www.w3.org/2000/svg">
  <path d="M 63.73 402.402 L 63.73 410.458 C 63.73 414.689 60.3 418.12 56.068 418.12 L 51.746 418.12 C 47.513 418.12 44.083 414.689 44.083 410.458 L 44.083 402.402 L 53.907 402.402 L 63.73 402.402 Z" style="fill: rgb(91, 86, 80);"/>
  <path d="M 45.827 412.201 L 45.827 404.146 L 55.65 404.146 L 63.73 404.146 L 63.73 402.402 L 53.907 402.402 L 44.083 402.402 L 44.083 410.458 C 44.083 413.019 45.341 415.284 47.271 416.676 C 46.363 415.417 45.827 413.872 45.827 412.201 Z" style="fill: rgb(232, 166, 100);"/>
  <path d="M 53.907 402.402 L 44.083 402.402 L 44.083 400.241 C 44.083 396.009 47.513 392.578 51.746 392.578 L 53.907 392.578 L 56.068 392.578 C 60.3 392.578 63.73 396.009 63.73 400.241 L 63.73 402.402 L 53.907 402.402 Z" style="fill: rgb(215, 222, 237);"/>
  <path d="M 45.066 402.083 C 45.066 397.851 48.496 394.42 52.728 394.42 L 54.889 394.42 L 57.05 394.42 C 59.608 394.42 61.871 395.674 63.263 397.6 C 62.187 394.669 59.372 392.578 56.068 392.578 L 53.907 392.578 L 51.746 392.578 C 47.513 392.578 44.083 396.009 44.083 400.241 L 44.083 402.402 L 45.066 402.402 L 45.066 402.083 Z" style="fill: rgb(175, 185, 210);"/>
  <path d="M 87.342 344.433 L 77.589 353.609 C 77.587 351.355 77.574 349.123 77.611 346.707 C 61.072 339.803 46.177 340.166 32.329 345.988 C 32.296 348.176 32.31 350.398 32.326 352.621 L 32.283 352.762 L 22.506 344.433 L 55.246 329.757 L 87.342 344.433 Z" style="fill: rgb(116, 115, 113);"/>
  <g transform="matrix(0.196475, 0, 0, 0.196475, 4.626616, 324.648193)" style="">
    <g>
      <g>
        <polygon points="257.822,38.167 412.357,108.832 421,100.7 257.64,26 91,100.7 100.42,108.726      " style="fill:#5B5A57;"/>
      </g>
      <g>
        <path d="M371.652,124.437c-0.099-0.042-0.197-0.079-0.296-0.12c-0.035,7.851-0.003,15.446,0.004,23.083       l0.163-0.153C371.516,139.845,371.53,132.335,371.652,124.437z" style="fill:#5B5A57;"/>
      </g>
    </g>
  </g>
  <path d="M 57.871 356.849 C 49.339 356.58 40.827 357.766 32.329 360.152 C 32.367 357.666 32.345 355.143 32.326 352.621 C 32.31 350.398 32.296 348.176 32.329 345.988 C 46.177 340.166 61.072 339.803 77.612 346.707 C 77.574 349.123 77.587 351.355 77.589 353.609 C 77.593 355.715 77.586 357.839 77.519 360.152 C 70.954 358.118 64.408 357.055 57.871 356.849 Z" style="fill: rgb(87, 96, 111);"/>
  <path d="M 33.894 359.726 C 33.904 357.819 33.888 355.895 33.873 353.971 C 33.857 351.749 33.844 349.527 33.877 347.338 C 47.289 341.7 61.683 341.182 77.602 347.427 C 77.605 347.188 77.608 346.949 77.612 346.707 C 61.072 339.803 46.177 340.166 32.329 345.988 C 32.296 348.176 32.31 350.398 32.326 352.621 C 32.345 355.143 32.367 357.666 32.329 360.152 C 32.851 360.005 33.372 359.863 33.894 359.726 Z" style="fill: rgb(65, 74, 86);"/>
  <path d="M 77.589 354.591 C 77.328 354.591 77.068 354.487 76.874 354.282 C 76.502 353.886 76.521 353.265 76.916 352.893 L 85.605 344.719 L 55.242 330.835 L 24.327 344.694 L 32.495 351.653 C 32.535 351.659 32.574 351.669 32.613 351.681 C 33.132 351.84 33.424 352.389 33.265 352.908 L 33.222 353.049 C 33.125 353.366 32.875 353.612 32.558 353.705 C 32.241 353.798 31.897 353.724 31.646 353.51 L 21.869 345.181 C 21.612 344.963 21.485 344.627 21.533 344.294 C 21.582 343.96 21.796 343.675 22.104 343.537 L 54.845 328.86 C 55.102 328.745 55.398 328.746 55.655 328.863 L 87.752 343.54 C 88.049 343.676 88.259 343.951 88.312 344.274 C 88.365 344.597 88.254 344.925 88.015 345.149 L 78.262 354.324 C 78.073 354.503 77.831 354.591 77.589 354.591 Z" style="fill: rgb(254, 190, 118);"/>
  <path d="M 32.329 361.134 C 32.115 361.134 31.904 361.064 31.73 360.929 C 31.485 360.741 31.343 360.447 31.347 360.137 C 31.383 357.742 31.364 355.264 31.345 352.868 L 31.343 352.628 C 31.329 350.683 31.312 348.262 31.347 345.973 C 31.353 345.583 31.59 345.233 31.949 345.081 C 39.036 342.103 46.336 340.592 53.646 340.592 C 61.52 340.592 69.71 342.344 77.989 345.8 C 78.361 345.955 78.6 346.32 78.593 346.722 C 78.563 348.685 78.567 350.554 78.57 352.363 L 78.572 353.607 C 78.576 355.613 78.569 357.798 78.501 360.179 C 78.492 360.486 78.34 360.772 78.091 360.95 C 77.841 361.129 77.521 361.181 77.228 361.089 C 70.914 359.133 64.391 358.037 57.84 357.83 C 57.061 357.806 56.269 357.793 55.485 357.793 C 48.107 357.793 40.405 358.905 32.595 361.097 C 32.508 361.122 32.419 361.134 32.329 361.134 Z M 33.304 346.647 C 33.28 348.72 33.296 350.861 33.308 352.613 L 33.31 352.854 C 33.325 354.829 33.342 356.859 33.327 358.86 C 40.877 356.848 48.325 355.829 55.485 355.829 C 56.289 355.829 57.103 355.841 57.903 355.866 C 64.201 356.066 70.474 357.065 76.568 358.84 C 76.607 356.975 76.61 355.234 76.607 353.611 L 76.605 352.367 C 76.602 350.756 76.599 349.096 76.62 347.36 C 68.792 344.172 61.065 342.556 53.646 342.556 C 46.802 342.557 39.962 343.933 33.304 346.647 Z" style="fill: rgb(254, 190, 118);"/>
  <path d="M 87.342 366.104 C 86.8 366.104 86.36 365.665 86.36 365.122 L 86.36 345.474 C 86.36 344.932 86.8 344.492 87.342 344.492 C 87.885 344.492 88.325 344.932 88.325 345.474 L 88.325 365.122 C 88.325 365.665 87.885 366.104 87.342 366.104 Z" style="fill: rgb(254, 190, 118);"/>
  <path d="M 87.342 373.964 C 84.634 373.964 82.431 371.76 82.431 369.052 C 82.431 366.343 84.634 364.139 87.342 364.139 C 90.051 364.139 92.255 366.343 92.255 369.052 C 92.255 371.76 90.051 373.964 87.342 373.964 Z M 87.342 366.104 C 85.718 366.104 84.396 367.427 84.396 369.052 C 84.396 370.676 85.718 371.998 87.342 371.998 C 88.968 371.998 90.29 370.676 90.29 369.052 C 90.29 367.427 88.968 366.104 87.342 366.104 Z" style="fill: rgb(254, 190, 118);"/>
  <path d="M 56.061 419.212 C 55.643 419.217 54.098 419.262 53.941 419.158 C 53.678 418.981 53.971 418.676 53.971 418.336 C 53.971 418.084 53.685 417.543 53.913 417.369 C 54.174 417.169 55.925 417.257 55.925 417.257 C 59.656 417.019 62.748 414.141 62.748 410.458 L 62.748 400.241 C 62.748 396.557 59.752 393.561 56.068 393.561 L 51.746 393.561 C 48.062 393.561 45.066 396.557 45.066 400.241 L 45.066 410.458 C 45.066 414.141 48.13 416.433 51.746 417.138 C 52.232 417.232 53.874 417.262 54.03 417.366 C 54.293 417.543 54.058 417.923 54.058 418.264 C 54.058 418.57 54.232 418.952 54.012 419.132 C 53.843 419.272 52.106 419.141 51.746 419.102 C 47.637 418.664 43.1 415.224 43.1 410.458 L 43.1 400.241 C 43.1 395.474 46.979 391.596 51.746 391.596 L 56.068 391.596 C 60.835 391.596 64.713 395.474 64.713 400.241 L 64.713 410.458 C 64.713 415.224 60.565 419.153 56.061 419.212 Z" style="fill: rgb(254, 190, 118);"/>
  <path d="M 63.73 403.384 L 44.083 403.384 C 43.541 403.384 43.1 402.945 43.1 402.402 C 43.1 401.859 43.541 401.42 44.083 401.42 L 63.73 401.42 C 64.273 401.42 64.713 401.859 64.713 402.402 C 64.713 402.945 64.273 403.384 63.73 403.384 Z" style="fill: rgb(254, 190, 118);"/>
  <path d="M 53.907 403.384 C 53.364 403.384 52.924 402.945 52.924 402.402 L 52.924 398.473 C 52.924 397.93 53.364 397.49 53.907 397.49 C 54.449 397.49 54.889 397.93 54.889 398.473 L 54.889 402.402 C 54.889 402.945 54.449 403.384 53.907 403.384 Z" style="fill: rgb(254, 190, 118); transform-box: fill-box; transform-origin: 50% 50%;"/>
  <path d="M 53.907 393.136 C 53.364 393.136 52.924 392.72 52.924 392.206 L 52.924 389.418 C 52.924 386.344 55.568 383.842 58.819 383.842 L 66.677 383.842 C 68.844 383.842 70.607 382.175 70.607 380.125 C 70.607 379.131 70.198 378.198 69.457 377.495 C 68.715 376.794 67.728 376.408 66.677 376.408 L 41.136 376.408 C 37.886 376.408 35.241 373.906 35.241 370.832 C 35.241 369.341 35.855 367.941 36.968 366.889 C 38.08 365.836 39.561 365.256 41.136 365.256 L 50.96 365.256 C 53.127 365.256 54.889 363.588 54.889 361.539 L 54.889 351.315 C 54.889 350.803 55.328 350.387 55.871 350.387 C 56.415 350.387 56.854 350.803 56.854 351.315 L 56.854 361.539 C 56.854 364.613 54.21 367.115 50.96 367.115 L 41.136 367.115 C 40.086 367.115 39.098 367.501 38.357 368.203 C 37.615 368.904 37.206 369.838 37.206 370.832 C 37.206 372.882 38.969 374.549 41.136 374.549 L 66.677 374.549 C 68.253 374.549 69.733 375.13 70.846 376.182 C 71.959 377.235 72.572 378.635 72.572 380.125 C 72.572 383.2 69.928 385.701 66.677 385.701 L 58.819 385.701 C 56.652 385.701 54.889 387.369 54.889 389.418 L 54.889 392.206 C 54.889 392.72 54.449 393.136 53.907 393.136 Z" style="fill: rgb(254, 190, 118);"/>
  <path d="M 160.495 379.616 L 98.604 379.616 C 98.178 379.616 97.832 379.367 97.832 379.058 C 97.832 378.751 98.178 378.5 98.604 378.5 L 160.495 378.5 C 160.922 378.5 161.269 378.751 161.269 379.058 C 161.269 379.367 160.922 379.616 160.495 379.616 Z" style="fill: rgb(254, 190, 118);"/>
  <text style="fill: rgb(254, 190, 118); font-family: 'UKIJ Bom'; font-size: 15.3px; font-weight: 700; white-space: pre;" x="66.229" y="373.376">Prof. Sérgio Vitor</text>
</svg>